# xmcd CD database file
#
# Track frame offsets:
#	150
#	7785
#	27108
#	50701
#	69656
#	81754
#	102068
#	113285
#	132733
#	148209
#	167574
#
# Disc length: 2581 seconds
#
# Revision: 0
# Processed by: cddbd v1.5.2PL0 Copyright (c) Steve Scherf et al.
# Submitted via: CDex 1.51
#
DISCID=8a0a130b
DTITLE=Andi Rozier - Songs For Sinners
DYEAR=2007
DGENRE=Worship
TTITLE0=More Than This
TTITLE1=Before You Now
TTITLE2=Offering Of Love
TTITLE3=Downpour
TTITLE4=Galatians 5:16-25
TTITLE5=It's Time To Make A Change
TTITLE6=A Sinners Prayer
TTITLE7=Testimony
TTITLE8=He Is My Fortress
TTITLE9=How Marvelous
TTITLE10=All Glory
EXTD=YEAR: 2007
EXTT0=
EXTT1=
EXTT2=
EXTT3=
EXTT4=
EXTT5=
EXTT6=
EXTT7=
EXTT8=
EXTT9=
EXTT10=
PLAYORDER=
